P3
# Created by GIMP version 2.10.30 PNM plug-in
14 14
255
255
0
255
255
0
255
255
0
255
255
0
255
255
0
255
255
0
255
0
0
0
0
0
0
255
0
255
255
0
255
255
0
255
255
0
255
255
0
255
255
0
255
255
0
255
255
0
255
255
0
255
255
0
255
255
0
255
0
0
0
42
42
42
24
24
24
0
0
0
255
0
255
255
0
255
255
0
255
255
0
255
255
0
255
255
0
255
255
0
255
255
0
255
255
0
255
255
0
255
0
0
0
74
74
74
24
24
24
0
0
0
255
0
255
255
0
255
255
0
255
255
0
255
255
0
255
255
0
255
255
0
255
255
0
255
255
0
255
255
0
255
255
0
255
0
0
0
0
0
0
255
0
255
255
0
255
255
0
255
255
0
255
255
0
255
255
0
255
255
0
255
255
0
255
255
0
255
255
0
255
255
0
255
0
0
0
59
59
59
24
24
24
0
0
0
255
0
255
255
0
255
255
0
255
255
0
255
255
0
255
255
0
255
255
0
255
255
0
255
255
0
255
0
0
0
74
74
74
74
74
74
42
42
42
255
0
255
0
0
0
255
0
255
255
0
255
255
0
255
255
0
255
255
0
255
255
0
255
255
0
255
0
0
0
74
74
74
74
74
74
59
59
59
255
0
255
0
0
0
24
24
24
0
0
0
255
0
255
255
0
255
255
0
255
255
0
255
255
0
255
255
0
255
0
0
0
74
74
74
74
74
74
59
59
59
0
0
0
42
42
42
24
24
24
0
0
0
255
0
255
255
0
255
255
0
255
255
0
255
255
0
255
255
0
255
0
0
0
74
74
74
59
59
59
59
59
59
42
42
42
42
42
42
24
24
24
0
0
0
255
0
255
255
0
255
255
0
255
255
0
255
255
0
255
255
0
255
0
0
0
90
90
90
59
59
59
59
59
59
42
42
42
42
42
42
24
24
24
0
0
0
255
0
255
255
0
255
255
0
255
255
0
255
255
0
255
255
0
255
255
0
255
0
0
0
74
74
74
59
59
59
42
42
42
42
42
42
0
0
0
255
0
255
255
0
255
255
0
255
255
0
255
255
0
255
255
0
255
255
0
255
0
0
0
0
0
0
0
0
0
0
0
0
0
0
0
0
0
0
0
0
0
0
0
0
255
0
255
255
0
255
255
0
255
255
0
255
255
0
255
0
0
0
90
90
90
74
74
74
59
59
59
59
59
59
42
42
42
24
24
24
24
24
24
24
24
24
0
0
0
255
0
255
255
0
255
255
0
255
255
0
255
0
0
0
0
0
0
0
0
0
0
0
0
0
0
0
0
0
0
0
0
0
0
0
0
0
0
0
0
0
0
255
0
255
255
0
255
