P3
# Created by GIMP version 2.10.30 PNM plug-in
14 14
255
255
0
255
255
0
255
255
0
255
255
0
255
255
0
255
255
0
255
255
0
255
255
0
255
255
0
255
255
0
255
255
0
255
255
0
255
255
0
255
255
0
255
255
0
255
255
0
255
255
0
255
255
0
255
255
0
255
255
0
255
255
0
255
255
0
255
255
0
255
255
0
255
255
0
255
255
0
255
255
0
255
255
0
255
255
0
255
255
0
255
255
0
255
255
0
255
255
0
255
0
0
0
0
0
0
0
0
0
0
0
0
255
0
255
255
0
255
255
0
255
255
0
255
255
0
255
255
0
255
255
0
255
255
0
255
255
0
255
0
0
0
82
82
82
69
69
69
69
69
69
24
24
24
0
0
0
255
0
255
255
0
255
255
0
255
255
0
255
255
0
255
255
0
255
255
0
255
255
0
255
0
0
0
69
69
69
42
42
42
42
42
42
24
24
24
0
0
0
255
0
255
255
0
255
255
0
255
255
0
255
255
0
255
255
0
255
255
0
255
255
0
255
0
0
0
59
59
59
59
59
59
42
42
42
24
24
24
0
0
0
255
0
255
255
0
255
255
0
255
255
0
255
255
0
255
255
0
255
255
0
255
255
0
255
255
0
255
0
0
0
59
59
59
42
42
42
0
0
0
255
0
255
255
0
255
255
0
255
255
0
255
255
0
255
255
0
255
255
0
255
255
0
255
255
0
255
0
0
0
82
82
82
59
59
59
42
42
42
24
24
24
0
0
0
255
0
255
255
0
255
255
0
255
255
0
255
255
0
255
255
0
255
255
0
255
255
0
255
0
0
0
82
82
82
59
59
59
42
42
42
24
24
24
0
0
0
255
0
255
255
0
255
255
0
255
255
0
255
255
0
255
255
0
255
255
0
255
255
0
255
255
0
255
0
0
0
42
42
42
42
42
42
0
0
0
255
0
255
255
0
255
255
0
255
255
0
255
255
0
255
255
0
255
255
0
255
255
0
255
255
0
255
0
0
0
69
69
69
69
69
69
42
42
42
24
24
24
0
0
0
255
0
255
255
0
255
255
0
255
255
0
255
255
0
255
255
0
255
255
0
255
0
0
0
82
82
82
69
69
69
42
42
42
42
42
42
42
42
42
24
24
24
0
0
0
255
0
255
255
0
255
255
0
255
255
0
255
255
0
255
255
0
255
0
0
0
69
69
69
42
42
42
42
42
42
42
42
42
42
42
42
24
24
24
0
0
0
255
0
255
255
0
255
255
0
255
255
0
255
255
0
255
255
0
255
0
0
0
0
0
0
0
0
0
0
0
0
0
0
0
0
0
0
0
0
0
0
0
0
255
0
255
255
0
255
255
0
255
