P3
# Created by GIMP version 2.10.30 PNM plug-in
14 14
255
255
0
255
255
0
255
0
0
0
0
0
0
0
0
0
255
0
255
0
0
0
0
0
0
0
0
0
0
0
0
0
0
0
0
0
0
255
0
255
255
0
255
255
0
255
255
0
255
0
0
0
213
213
213
0
0
0
255
0
255
0
0
0
176
176
176
168
168
168
168
168
168
138
138
138
0
0
0
255
0
255
255
0
255
255
0
255
255
0
255
0
0
0
213
213
213
0
0
0
0
0
0
0
0
0
176
176
176
179
179
179
168
168
168
138
138
138
0
0
0
255
0
255
255
0
255
255
0
255
255
0
255
0
0
0
213
213
213
199
199
199
199
199
199
176
176
176
176
176
176
179
179
179
138
138
138
138
138
138
0
0
0
255
0
255
255
0
255
255
0
255
255
0
255
0
0
0
0
0
0
0
0
0
0
0
0
0
0
0
0
0
0
0
0
0
0
0
0
0
0
0
0
0
0
255
0
255
255
0
255
255
0
255
255
0
255
255
0
255
0
0
0
199
199
199
199
199
199
176
176
176
176
176
176
168
168
168
138
138
138
0
0
0
255
0
255
255
0
255
255
0
255
255
0
255
255
0
255
255
0
255
255
0
255
0
0
0
0
0
0
0
0
0
0
0
0
0
0
0
0
0
0
255
0
255
255
0
255
255
0
255
255
0
255
255
0
255
255
0
255
255
0
255
255
0
255
0
0
0
199
199
199
168
168
168
168
168
168
138
138
138
0
0
0
255
0
255
255
0
255
255
0
255
255
0
255
255
0
255
255
0
255
255
0
255
255
0
255
0
0
0
199
199
199
168
168
168
168
168
168
138
138
138
0
0
0
255
0
255
255
0
255
255
0
255
255
0
255
255
0
255
255
0
255
255
0
255
255
0
255
0
0
0
199
199
199
168
168
168
168
168
168
138
138
138
0
0
0
255
0
255
255
0
255
255
0
255
255
0
255
255
0
255
255
0
255
255
0
255
0
0
0
199
199
199
199
199
199
176
176
176
168
168
168
168
168
168
138
138
138
0
0
0
255
0
255
255
0
255
255
0
255
255
0
255
255
0
255
0
0
0
199
199
199
199
199
199
179
179
179
179
179
179
176
176
176
168
168
168
168
168
168
138
138
138
0
0
0
255
0
255
255
0
255
255
0
255
0
0
0
213
213
213
199
199
199
179
179
179
179
179
179
179
179
179
176
176
176
168
168
168
168
168
168
138
138
138
138
138
138
0
0
0
255
0
255
255
0
255
0
0
0
0
0
0
0
0
0
0
0
0
0
0
0
0
0
0
0
0
0
0
0
0
0
0
0
0
0
0
0
0
0
0
0
0
255
0
255
