P3
# Created by GIMP version 2.10.30 PNM plug-in
14 14
255
255
0
255
255
0
255
0
0
0
0
0
0
0
0
0
255
0
255
0
0
0
0
0
0
0
0
0
0
0
0
0
0
0
0
0
0
255
0
255
255
0
255
255
0
255
255
0
255
0
0
0
86
86
86
0
0
0
255
0
255
0
0
0
51
51
51
51
51
51
36
36
36
16
16
16
0
0
0
255
0
255
255
0
255
255
0
255
255
0
255
0
0
0
86
86
86
0
0
0
0
0
0
0
0
0
51
51
51
51
51
51
36
36
36
16
16
16
0
0
0
255
0
255
255
0
255
255
0
255
255
0
255
0
0
0
74
74
74
63
63
63
63
63
63
63
63
63
51
51
51
51
51
51
36
36
36
16
16
16
0
0
0
255
0
255
255
0
255
255
0
255
255
0
255
0
0
0
0
0
0
0
0
0
0
0
0
0
0
0
0
0
0
0
0
0
0
0
0
0
0
0
0
0
0
255
0
255
255
0
255
255
0
255
255
0
255
255
0
255
0
0
0
74
74
74
63
63
63
51
51
51
51
51
51
36
36
36
20
20
20
0
0
0
255
0
255
255
0
255
255
0
255
255
0
255
255
0
255
255
0
255
255
0
255
0
0
0
0
0
0
0
0
0
0
0
0
0
0
0
0
0
0
255
0
255
255
0
255
255
0
255
255
0
255
255
0
255
255
0
255
255
0
255
255
0
255
0
0
0
51
51
51
51
51
51
36
36
36
20
20
20
0
0
0
255
0
255
255
0
255
255
0
255
255
0
255
255
0
255
255
0
255
255
0
255
255
0
255
0
0
0
51
51
51
51
51
51
36
36
36
20
20
20
0
0
0
255
0
255
255
0
255
255
0
255
255
0
255
255
0
255
255
0
255
255
0
255
255
0
255
0
0
0
51
51
51
51
51
51
36
36
36
20
20
20
0
0
0
255
0
255
255
0
255
255
0
255
255
0
255
255
0
255
255
0
255
255
0
255
0
0
0
63
63
63
63
63
63
51
51
51
51
51
51
36
36
36
20
20
20
0
0
0
255
0
255
255
0
255
255
0
255
255
0
255
255
0
255
0
0
0
86
86
86
74
74
74
74
74
74
63
63
63
51
51
51
51
51
51
36
36
36
20
20
20
0
0
0
255
0
255
255
0
255
255
0
255
0
0
0
86
86
86
86
86
86
74
74
74
74
74
74
63
63
63
63
63
63
51
51
51
51
51
51
36
36
36
20
20
20
0
0
0
255
0
255
255
0
255
0
0
0
0
0
0
0
0
0
0
0
0
0
0
0
0
0
0
0
0
0
0
0
0
0
0
0
0
0
0
0
0
0
0
0
0
255
0
255
