P3
# Created by GIMP version 2.10.30 PNM plug-in
14 14
255
46
204
113
46
204
113
46
204
113
46
204
113
46
204
113
255
0
255
255
0
255
255
0
255
255
0
255
46
204
113
46
204
113
46
204
113
46
204
113
46
204
113
46
204
113
46
204
113
46
204
113
46
204
113
255
0
255
255
0
255
255
0
255
255
0
255
255
0
255
255
0
255
46
204
113
46
204
113
46
204
113
46
204
113
46
204
113
46
204
113
255
0
255
255
0
255
255
0
255
255
0
255
255
0
255
255
0
255
255
0
255
255
0
255
255
0
255
255
0
255
46
204
113
46
204
113
46
204
113
46
204
113
255
0
255
255
0
255
255
0
255
255
0
255
255
0
255
255
0
255
255
0
255
255
0
255
255
0
255
255
0
255
46
204
113
46
204
113
46
204
113
255
0
255
255
0
255
255
0
255
255
0
255
255
0
255
255
0
255
255
0
255
255
0
255
255
0
255
255
0
255
255
0
255
255
0
255
46
204
113
255
0
255
255
0
255
255
0
255
255
0
255
255
0
255
255
0
255
255
0
255
255
0
255
255
0
255
255
0
255
255
0
255
255
0
255
255
0
255
255
0
255
255
0
255
255
0
255
255
0
255
255
0
255
255
0
255
255
0
255
255
0
255
255
0
255
255
0
255
255
0
255
255
0
255
255
0
255
255
0
255
255
0
255
255
0
255
255
0
255
255
0
255
255
0
255
255
0
255
255
0
255
255
0
255
255
0
255
255
0
255
255
0
255
255
0
255
255
0
255
255
0
255
255
0
255
255
0
255
255
0
255
255
0
255
255
0
255
255
0
255
255
0
255
255
0
255
255
0
255
255
0
255
255
0
255
255
0
255
255
0
255
255
0
255
255
0
255
46
204
113
255
0
255
255
0
255
255
0
255
255
0
255
255
0
255
255
0
255
255
0
255
255
0
255
255
0
255
255
0
255
255
0
255
255
0
255
46
204
113
46
204
113
46
204
113
255
0
255
255
0
255
255
0
255
255
0
255
255
0
255
255
0
255
255
0
255
255
0
255
255
0
255
255
0
255
46
204
113
46
204
113
46
204
113
46
204
113
255
0
255
255
0
255
255
0
255
255
0
255
255
0
255
255
0
255
255
0
255
255
0
255
255
0
255
255
0
255
46
204
113
46
204
113
46
204
113
46
204
113
46
204
113
46
204
113
255
0
255
255
0
255
255
0
255
255
0
255
255
0
255
255
0
255
46
204
113
46
204
113
46
204
113
46
204
113
46
204
113
46
204
113
46
204
113
46
204
113
46
204
113
255
0
255
255
0
255
255
0
255
255
0
255
46
204
113
46
204
113
46
204
113
46
204
113
46
204
113
