P3
# Created by GIMP version 2.10.30 PNM plug-in
14 14
255
230
126
34
230
126
34
230
126
34
230
126
34
230
126
34
255
0
255
255
0
255
255
0
255
255
0
255
230
126
34
230
126
34
230
126
34
230
126
34
230
126
34
230
126
34
230
126
34
230
126
34
230
126
34
255
0
255
255
0
255
255
0
255
255
0
255
255
0
255
255
0
255
230
126
34
230
126
34
230
126
34
230
126
34
230
126
34
230
126
34
255
0
255
255
0
255
255
0
255
255
0
255
255
0
255
255
0
255
255
0
255
255
0
255
255
0
255
255
0
255
230
126
34
230
126
34
230
126
34
230
126
34
255
0
255
255
0
255
255
0
255
255
0
255
255
0
255
255
0
255
255
0
255
255
0
255
255
0
255
255
0
255
230
126
34
230
126
34
230
126
34
255
0
255
255
0
255
255
0
255
255
0
255
255
0
255
255
0
255
255
0
255
255
0
255
255
0
255
255
0
255
255
0
255
255
0
255
230
126
34
255
0
255
255
0
255
255
0
255
255
0
255
255
0
255
255
0
255
255
0
255
255
0
255
255
0
255
255
0
255
255
0
255
255
0
255
255
0
255
255
0
255
255
0
255
255
0
255
255
0
255
255
0
255
255
0
255
255
0
255
255
0
255
255
0
255
255
0
255
255
0
255
255
0
255
255
0
255
255
0
255
255
0
255
255
0
255
255
0
255
255
0
255
255
0
255
255
0
255
255
0
255
255
0
255
255
0
255
255
0
255
255
0
255
255
0
255
255
0
255
255
0
255
255
0
255
255
0
255
255
0
255
255
0
255
255
0
255
255
0
255
255
0
255
255
0
255
255
0
255
255
0
255
255
0
255
255
0
255
255
0
255
255
0
255
255
0
255
230
126
34
255
0
255
255
0
255
255
0
255
255
0
255
255
0
255
255
0
255
255
0
255
255
0
255
255
0
255
255
0
255
255
0
255
255
0
255
230
126
34
230
126
34
230
126
34
255
0
255
255
0
255
255
0
255
255
0
255
255
0
255
255
0
255
255
0
255
255
0
255
255
0
255
255
0
255
230
126
34
230
126
34
230
126
34
230
126
34
255
0
255
255
0
255
255
0
255
255
0
255
255
0
255
255
0
255
255
0
255
255
0
255
255
0
255
255
0
255
230
126
34
230
126
34
230
126
34
230
126
34
230
126
34
230
126
34
255
0
255
255
0
255
255
0
255
255
0
255
255
0
255
255
0
255
230
126
34
230
126
34
230
126
34
230
126
34
230
126
34
230
126
34
230
126
34
230
126
34
230
126
34
255
0
255
255
0
255
255
0
255
255
0
255
230
126
34
230
126
34
230
126
34
230
126
34
230
126
34
