P3
# Created by GIMP version 2.10.30 PNM plug-in
14 14
255
255
0
255
255
0
255
255
0
255
255
0
255
255
0
255
255
0
255
255
0
255
255
0
255
255
0
255
255
0
255
255
0
255
255
0
255
255
0
255
255
0
255
255
0
255
255
0
255
255
0
255
255
0
255
255
0
255
255
0
255
255
0
255
255
0
255
255
0
255
255
0
255
255
0
255
255
0
255
255
0
255
255
0
255
255
0
255
255
0
255
255
0
255
255
0
255
255
0
255
0
0
0
0
0
0
0
0
0
0
0
0
255
0
255
255
0
255
255
0
255
255
0
255
255
0
255
255
0
255
255
0
255
255
0
255
255
0
255
0
0
0
46
208
169
0
173
118
0
173
118
0
129
0
0
0
0
255
0
255
255
0
255
255
0
255
255
0
255
255
0
255
255
0
255
255
0
255
255
0
255
0
0
0
0
173
118
0
161
98
0
161
98
0
129
0
0
0
0
255
0
255
255
0
255
255
0
255
255
0
255
255
0
255
255
0
255
255
0
255
255
0
255
0
0
0
0
173
118
0
173
118
0
161
98
0
129
0
0
0
0
255
0
255
255
0
255
255
0
255
255
0
255
255
0
255
255
0
255
255
0
255
255
0
255
255
0
255
0
0
0
0
173
118
0
161
98
0
0
0
255
0
255
255
0
255
255
0
255
255
0
255
255
0
255
255
0
255
255
0
255
255
0
255
255
0
255
0
0
0
46
208
169
0
173
118
0
161
98
0
129
0
0
0
0
255
0
255
255
0
255
255
0
255
255
0
255
255
0
255
255
0
255
255
0
255
255
0
255
0
0
0
46
208
169
0
173
118
0
161
98
0
129
0
0
0
0
255
0
255
255
0
255
255
0
255
255
0
255
255
0
255
255
0
255
255
0
255
255
0
255
255
0
255
0
0
0
0
161
98
0
161
98
0
0
0
255
0
255
255
0
255
255
0
255
255
0
255
255
0
255
255
0
255
255
0
255
255
0
255
255
0
255
0
0
0
0
173
118
0
173
118
0
161
98
0
129
0
0
0
0
255
0
255
255
0
255
255
0
255
255
0
255
255
0
255
255
0
255
255
0
255
0
0
0
46
208
169
0
173
118
0
161
98
0
161
98
0
161
98
0
129
0
0
0
0
255
0
255
255
0
255
255
0
255
255
0
255
255
0
255
255
0
255
0
0
0
0
173
118
0
161
98
0
161
98
0
161
98
0
161
98
0
129
0
0
0
0
255
0
255
255
0
255
255
0
255
255
0
255
255
0
255
255
0
255
0
0
0
0
0
0
0
0
0
0
0
0
0
0
0
0
0
0
0
0
0
0
0
0
255
0
255
255
0
255
255
0
255
